<svg width="102" height="96" viewBox="0 0 102 96" fill="none" xmlns="http://www.w3.org/2000/svg">
<path d="M100.396 48C100.396 73.9083 78.2395 95 50.7956 95C23.3518 95 1.19531 73.9083 1.19531 48C1.19531 22.0917 23.3518 1 50.7956 1C78.2395 1 100.396 22.0917 100.396 48Z" stroke="url(#paint0_linear_1_94)" stroke-width="2"/>
<path fill-rule="evenodd" clip-rule="evenodd" d="M51.7002 32.179C51.7002 31.7924 51.3868 31.479 51.0002 31.479C50.6136 31.479 50.3002 31.7924 50.3002 32.179L50.3002 64.857C50.3 64.8568 50.2998 64.8567 50.2996 64.8565C49.9465 64.6001 49.5267 64.2038 48.9017 63.611L39.0213 54.2383C38.7408 53.9722 38.2977 53.9839 38.0317 54.2644C37.7656 54.5448 37.7773 54.9879 38.0578 55.254L47.9382 64.6267L47.9724 64.6591L47.9724 64.6591C48.5543 65.2111 49.0404 65.6723 49.4768 65.9893C49.938 66.3243 50.4212 66.5576 51.0008 66.5576C51.5804 66.5576 52.0635 66.3243 52.5248 65.9893C52.9612 65.6723 53.4473 65.2111 54.0292 64.659L54.0293 64.659L54.0634 64.6267L63.9438 55.254C64.2243 54.9879 64.236 54.5448 63.9699 54.2644C63.7038 53.9839 63.2608 53.9722 62.9803 54.2383L53.0999 63.611C52.4749 64.2038 52.0551 64.6001 51.702 64.8565C51.7014 64.857 51.7008 64.8574 51.7002 64.8579L51.7002 32.179Z" fill="url(#paint1_linear_1_94)"/>
<defs>
<linearGradient id="paint0_linear_1_94" x1="0.195311" y1="96" x2="98.4584" y2="33.2204" gradientUnits="userSpaceOnUse">
<stop stop-color="white"/>
<stop offset="0.667471" stop-color="#E5E5E5" stop-opacity="0.332529"/>
<stop offset="1" stop-color="#D9D9D9" stop-opacity="0"/>
</linearGradient>
<linearGradient id="paint1_linear_1_94" x1="51.0008" y1="36.3477" x2="50.36" y2="78.5338" gradientUnits="userSpaceOnUse">
<stop stop-color="white" stop-opacity="0.25"/>
<stop offset="1" stop-color="white" stop-opacity="0.8"/>
</linearGradient>
</defs>
</svg>
